<svg id="icon-specs-bodystyle" xmlns="http://www.w3.org/2000/svg" width="24" height="24" viewBox="0 0 24 24">
  <rect id="bg" width="24" height="24" fill="none"/>
  <path id="Tracé_69903" data-name="Tracé 69903" d="M88.184,141.918a.536.536,0,0,0-.466-.263H86.65a.818.818,0,0,0-.651.323l-.6.794-1.985-4.056a1.479,1.479,0,0,0-1.275-.733H70.847a1.479,1.479,0,0,0-1.275.733l-1.985,4.056-.6-.794a.818.818,0,0,0-.651-.323H65.263a.536.536,0,0,0-.466.263,2.736,2.736,0,0,0-.306,1.25.353.353,0,0,0,.351.375h1.507a.442.442,0,0,1,.332.151l0,0a.35.35,0,0,1-.032.493,3.745,3.745,0,0,0-1.334,2.017,3.089,3.089,0,0,0-.069.692v4.118a3.245,3.245,0,0,0,.056.557,1.881,1.881,0,0,0,.513.969v2.965a.472.472,0,0,0,.471.474h3.144a.472.472,0,0,0,.471-.474v-2.087H83.077v2.087a.472.472,0,0,0,.471.474h3.144a.472.472,0,0,0,.471-.474v-2.965a1.88,1.88,0,0,0,.513-.969,3.256,3.256,0,0,0,.056-.557V146.9a3.089,3.089,0,0,0-.069-.692,3.745,3.745,0,0,0-1.334-2.017.35.35,0,0,1-.032-.493l0,0a.443.443,0,0,1,.332-.151h1.507a.353.353,0,0,0,.351-.375A2.735,2.735,0,0,0,88.184,141.918ZM70.77,147.741a.351.351,0,0,1-.408.347l-2.906-.492a.964.964,0,0,1-.8-.953v-.473a.3.3,0,0,1,.3-.3h2.707a1.116,1.116,0,0,1,1.112,1.119Zm-1.68-4.386a.379.379,0,0,1-.326-.569l1.574-3.593a.739.739,0,0,1,.64-.371H82a.739.739,0,0,1,.64.371l1.574,3.593a.379.379,0,0,1-.326.569Zm17.236,2.816v.473a.964.964,0,0,1-.8.953l-2.906.492a.351.351,0,0,1-.408-.347v-.748a1.116,1.116,0,0,1,1.112-1.119h2.707A.3.3,0,0,1,86.326,146.171Z" transform="translate(-64.49 -134.984)"/>
</svg>
