<svg xmlns="http://www.w3.org/2000/svg" width="48" height="25.006" viewBox="0 0 48 25.006">
  <g id="icon-cta-financing" transform="translate(0 0.5)">
    <rect id="bg" width="48" height="24" transform="translate(0 0.004)" fill="none"/>
    <path id="Union_15" data-name="Union 15" d="M22042.617,20987.434a2.117,2.117,0,0,1-2.115-2.121v-.986h30.676v.986a2.117,2.117,0,0,1-2.117,2.121Zm-.416-4.691a1.7,1.7,0,0,1-1.7-1.7v-15.914a1.7,1.7,0,0,1,1.7-1.7h27.275a1.7,1.7,0,0,1,1.7,1.7v15.914a1.705,1.705,0,0,1-1.7,1.7Zm12.807-1.584a.828.828,0,1,0,.832-.826A.83.83,0,0,0,22055.008,20981.158Zm-11.205-1.568h23.879V20966H22043.8Zm2.121-6.879a4.279,4.279,0,1,1,4.281,4.281A4.288,4.288,0,0,1,22045.924,20972.711Zm4.4,1.439a.855.855,0,1,0,.863-.857A.854.854,0,0,0,22050.322,20974.15Zm1.3-3.123-3.412,3.051a.354.354,0,0,0-.021.482.312.312,0,0,0,.25.111.327.327,0,0,0,.232-.09l3.4-3.057a.316.316,0,0,0,.117-.227.34.34,0,0,0-.09-.25.328.328,0,0,0-.248-.115A.355.355,0,0,0,22051.623,20971.027Zm-3.455.459a.853.853,0,1,0,.848-.848A.853.853,0,0,0,22048.168,20971.486Zm8.5,5.023v-1.385h8.9v1.385Zm0-3.023v-1.385h6.984v1.385Zm0-3.02v-1.391h5.795v1.391Z" transform="translate(-22031.504 -20963.428)" stroke="rgba(0,0,0,0)" stroke-miterlimit="10" stroke-width="1"/>
  </g>
</svg>
