<svg xmlns="http://www.w3.org/2000/svg" width="48" height="26.305" viewBox="0 0 48 26.305">
  <g id="icon-cta-trade-in" transform="translate(0 1.152)">
    <rect id="bg" width="48" height="24" fill="none"/>
    <path id="Union_16" data-name="Union 16" d="M21993.426,21122.418l7.734-7.227-.012,3.9h1.525a9.105,9.105,0,0,0,4.729,6.586v.066h-6.275l-.012,3.9Zm10.576-4.766a7.641,7.641,0,1,1,7.641,7.641A7.643,7.643,0,0,1,22004,21117.652Zm1.924,0a5.717,5.717,0,1,0,5.717-5.717A5.719,5.719,0,0,0,22005.926,21117.652Zm5.473,3.957v-.922a3.816,3.816,0,0,1-1.646-.416l.287-1.133a3.476,3.476,0,0,0,1.615.426c.553,0,.928-.215.928-.6,0-.369-.309-.6-1.027-.846-1.035-.348-1.748-.834-1.748-1.773a1.8,1.8,0,0,1,1.643-1.73v-.924h.951v.857a3.5,3.5,0,0,1,1.41.32l-.283,1.094a3.3,3.3,0,0,0-1.4-.326c-.631,0-.834.271-.834.543,0,.32.342.525,1.166.834,1.154.41,1.619.939,1.619,1.814a1.86,1.86,0,0,1-1.73,1.8v.988Zm10.742-5.4h-1.531a9.108,9.108,0,0,0-4.727-6.586v-.066h6.275l.012-3.908,7.7,7.232-7.734,7.23Z" transform="translate(-21987.426 -21105.648)" stroke="rgba(0,0,0,0)" stroke-miterlimit="10" stroke-width="1"/>
  </g>
</svg>
